<svg xmlns="http://www.w3.org/2000/svg" xmlns:xlink="http://www.w3.org/1999/xlink" viewBox="0 0 51.7 46.07"><defs><style>.cls-1{isolation:isolate;}.cls-2{fill:url(#linear-gradient);}.cls-3{fill:url(#radial-gradient);}.cls-4{opacity:0.34;fill:url(#New_Gradient_Swatch_11);}.cls-12,.cls-4,.cls-5{mix-blend-mode:screen;}.cls-5{opacity:0.37;fill:url(#linear-gradient-2);}.cls-6{opacity:0.13;fill:url(#linear-gradient-3);}.cls-7{opacity:0.41;}.cls-8{fill:url(#linear-gradient-4);}.cls-9{fill:url(#linear-gradient-5);}.cls-10{fill:url(#linear-gradient-6);}.cls-11{fill:url(#linear-gradient-7);}.cls-12{opacity:0.52;fill:url(#linear-gradient-8);}</style><linearGradient id="linear-gradient" x1="56.49" y1="40.48" x2="57.82" y2="82.06" gradientUnits="userSpaceOnUse"><stop offset="0" stop-color="#f70001"/><stop offset="0.15" stop-color="#f00001"/><stop offset="0.37" stop-color="#db0001"/><stop offset="0.64" stop-color="#b90102"/><stop offset="0.94" stop-color="#8a0102"/><stop offset="1" stop-color="#810102"/></linearGradient><radialGradient id="radial-gradient" cx="56.7" cy="47.67" r="19.98" gradientUnits="userSpaceOnUse"><stop offset="0" stop-color="#e84a33"/><stop offset="0.84" stop-color="#d00b12"/></radialGradient><linearGradient id="New_Gradient_Swatch_11" x1="-19.77" y1="60.72" x2="-31.61" y2="80.19" gradientTransform="matrix(-0.81, 0.07, 0.09, 0.95, 11.47, -4.71)" gradientUnits="userSpaceOnUse"><stop offset="0" stop-color="#e54830"/><stop offset="1" stop-color="#d81617"/></linearGradient><linearGradient id="linear-gradient-2" x1="39.94" y1="37.1" x2="55.14" y2="37.1" gradientTransform="matrix(-1, 0, 0, 1, 91.92, 0)" gradientUnits="userSpaceOnUse"><stop offset="0" stop-color="#fff8f6"/><stop offset="0.96" stop-color="#d22a21"/></linearGradient><linearGradient id="linear-gradient-3" x1="42.09" y1="31.88" x2="77.43" y2="79.62" gradientUnits="userSpaceOnUse"><stop offset="0" stop-color="#fff"/><stop offset="1" stop-color="#b10822"/></linearGradient><linearGradient id="linear-gradient-4" x1="-323.7" y1="60.11" x2="-309.29" y2="74.85" gradientTransform="matrix(-1.04, 0.07, -0.02, 1.04, -292.9, -7.3)" gradientUnits="userSpaceOnUse"><stop offset="0" stop-color="#f9c7c5"/><stop offset="0.12" stop-color="#f8c0be"/><stop offset="0.28" stop-color="#f7adac"/><stop offset="0.48" stop-color="#f58e8e"/><stop offset="0.71" stop-color="#f16265"/><stop offset="0.95" stop-color="#ed2b30"/><stop offset="1" stop-color="#ec1e24"/></linearGradient><linearGradient id="linear-gradient-5" x1="-324.86" y1="61.25" x2="-310.45" y2="75.98" xlink:href="#linear-gradient-4"/><linearGradient id="linear-gradient-6" x1="-323.68" y1="60.1" x2="-309.27" y2="74.83" xlink:href="#linear-gradient-4"/><linearGradient id="linear-gradient-7" x1="-324.28" y1="60.69" x2="-309.87" y2="75.42" xlink:href="#linear-gradient-4"/><linearGradient id="linear-gradient-8" x1="268.56" y1="37.23" x2="268.16" y2="50.17" gradientTransform="matrix(-1, 0, 0, 1, 343.89, 0)" xlink:href="#linear-gradient-4"/></defs><title>heart-1</title><g class="cls-1"><g id="Layer_1" data-name="Layer 1"><path class="cls-2" d="M56.65,80C30.92,66.8,26.7,47.54,34.29,38.65c7.74-9.07,20.81-3.24,22.48,3,1.72-6.22,14.83-11.95,22.51-2.83C86.8,47.75,82.44,67,56.65,80Z" transform="translate(-30.9 -33.97)"/><path class="cls-3" d="M56.65,42.21C55.37,36.46,43.19,29.64,35,38.53c-3.49,3.79-4.39,9.65-1.18,15.8,5.89,9.55,40.58,8.81,46.27-1.13,2.6-5.68,1.5-10.91-1.41-14.38C71.82,30.61,59.41,34.85,56.65,42.21Z" transform="translate(-30.9 -33.97)"/><path class="cls-4" d="M52,76.62s-15.43-8.78-19.1-22.15a16.2,16.2,0,0,0,5.77,2S43.92,70.31,52,76.62Z" transform="translate(-30.9 -33.97)"/><path class="cls-5" d="M36.77,38a17.39,17.39,0,0,1,1.77-.79,15.79,15.79,0,0,1,1.84-.6,14.32,14.32,0,0,1,3.78-.54,10.34,10.34,0,0,1,3.68.61,9,9,0,0,1,3.1,1.93.62.62,0,0,0,.87,0,.61.61,0,0,0,0-.87l0,0h0a10.27,10.27,0,0,0-3.62-1.88,11.09,11.09,0,0,0-4-.34,15.17,15.17,0,0,0-3.84.86A17.82,17.82,0,0,0,36.77,38Z" transform="translate(-30.9 -33.97)"/><path class="cls-6" d="M36.45,61.65a27.2,27.2,0,0,1-4.23-9.81c-1-5.07,0-9.66,2.76-12.91A11.74,11.74,0,0,1,44,34.61h.14a14.28,14.28,0,0,1,7.46,2.17,9.6,9.6,0,0,1,3.77,4l1.27,2.86L58,40.78c1.47-3.31,6.43-6,11-6.08h.14a12.3,12.3,0,0,1,3,.36c-2.78,6.67-6.41,13.29-13.26,17.67C51.15,57.65,43.81,60.57,36.45,61.65Z" transform="translate(-30.9 -33.97)"/><g class="cls-7"><path class="cls-8" d="M36.69,39.38a9.24,9.24,0,0,1,4.47-1.63c0-.73,0-1.09,0-1.82a12,12,0,0,0-5,2.29Z" transform="translate(-30.9 -33.97)"/><path class="cls-9" d="M37.39,41a6.86,6.86,0,0,1,3.72-.73c0-.73,0-1.1,0-1.83a8.53,8.53,0,0,0-4.27,1.4C37.08,40.27,37.18,40.51,37.39,41Z" transform="translate(-30.9 -33.97)"/><path class="cls-10" d="M32.67,46.88a10.18,10.18,0,0,1,3.64-7.22l-.53-1.09a10.88,10.88,0,0,0-3.43,8.33Z" transform="translate(-30.9 -33.97)"/><path class="cls-11" d="M33.11,46.85a9.14,9.14,0,0,1,3.94-5.7l-.54-1.09a9.33,9.33,0,0,0-3.72,6.81Z" transform="translate(-30.9 -33.97)"/></g><path class="cls-12" d="M68.6,34.7s6.81-1,10.75,4.28,3.22,12.58,2,15a8.14,8.14,0,0,0-6.09-4S78.39,39.22,68.6,34.7Z" transform="translate(-30.9 -33.97)"/></g></g></svg>